<!-- icon666.com - MILLIONS vector ICONS FREE --><svg id="Layer_1" enable-background="new 0 0 512 512" viewBox="0 0 512 512" xmlns="http://www.w3.org/2000/svg" xmlns:xlink="http://www.w3.org/1999/xlink"><linearGradient id="SVGID_1_" gradientUnits="userSpaceOnUse" x1="256" x2="256" y1="512" y2="0"><stop offset="0" stop-color="#e93528"></stop><stop offset="1" stop-color="#f8bc16"></stop></linearGradient><path d="m256 0c-141.159 0-256 114.841-256 256s114.841 256 256 256 256-114.841 256-256-114.841-256-256-256zm0 480c-123.514 0-224-100.486-224-224s100.486-224 224-224 224 100.486 224 224-100.486 224-224 224zm0-417.313c-106.594 0-193.313 86.72-193.313 193.313s86.719 193.313 193.313 193.313 193.313-86.72 193.313-193.313-86.719-193.313-193.313-193.313zm124.765 295.45-4.46-4.46c-6.248-6.249-16.379-6.249-22.627 0-6.248 6.248-6.248 16.379 0 22.627l4.459 4.46c-23.954 19.646-53.643 32.542-86.137 35.756v-6.383c0-8.836-7.163-16-16-16s-16 7.164-16 16v6.383c-32.494-3.214-62.183-16.11-86.137-35.756l4.459-4.46c6.248-6.248 6.248-16.379 0-22.627-6.248-6.249-16.379-6.249-22.627 0l-4.46 4.46c-19.646-23.954-32.542-53.643-35.756-86.137h6.384c8.837 0 16-7.164 16-16s-7.163-16-16-16h-6.384c3.214-32.494 16.11-62.183 35.756-86.137l4.46 4.46c3.124 3.124 7.219 4.686 11.313 4.686s8.189-1.563 11.313-4.687c6.249-6.249 6.248-16.379 0-22.627l-4.459-4.459c23.955-19.646 53.644-32.542 86.138-35.756v6.384c0 8.836 7.163 16 16 16s16-7.164 16-16v-6.384c32.494 3.214 62.183 16.11 86.137 35.756l-4.459 4.459c-6.248 6.248-6.249 16.379 0 22.627 3.124 3.125 7.218 4.687 11.313 4.687 4.094 0 8.189-1.563 11.313-4.686l4.46-4.46c19.646 23.954 32.542 53.643 35.756 86.137h-6.384c-8.837 0-16 7.164-16 16s7.163 16 16 16h6.384c-3.213 32.494-16.109 62.183-35.755 86.137zm-63.461-48.477c-3.163 3.613-7.593 5.462-12.046 5.462-3.74 0-7.496-1.304-10.531-3.961l-49.265-43.122c-3.471-3.038-5.462-7.426-5.462-12.039v-93.415c0-8.836 7.163-16 16-16s16 7.164 16 16v86.156l43.803 38.341c6.649 5.821 7.321 15.929 1.501 22.578z" fill="url(#SVGID_1_)"></path></svg>