<!-- icon666.com - MILLIONS vector ICONS FREE --><svg viewBox="0 0 58 58" xmlns="http://www.w3.org/2000/svg"><g id="Page-1" fill="none" fill-rule="evenodd"><g id="013---Car-Service"><path id="Path" d="m39.95 30h12.05l5.41 5.41c.3774773.3761733.5897587.8870877.59 1.42v13.17c-.0032948 1.1032019-.8967981 1.9967052-2 2h-54c-1.10320187-.0032948-1.9967052-.8967981-2-2v-13.17c.00024132-.5329123.21252266-1.0438267.59-1.42l5.41-5.41z" fill="#e64c3c"></path><path id="Path" d="m52 30-3.09-9.26c-.4415878-1.3454253-1.5650975-2.3546797-2.95-2.65h-33.92c-1.3849025.2953203-2.50841217 1.3045747-2.95 2.65l-3.09 9.26z" fill="#b0d3f0"></path><circle id="Oval" cx="29" cy="17" fill="#f0c419" r="17"></circle><path id="Path" d="m2 52h11v4c0 1.1045695-.8954305 2-2 2h-7c-1.1045695 0-2-.8954305-2-2z" fill="#3f5c6c"></path><path id="Path" d="m45 52h11v4c0 1.1045695-.8954305 2-2 2h-7c-1.1045695 0-2-.8954305-2-2z" fill="#3f5c6c"></path><path id="Path" d="m36.607 43h-15.214c-.2685724.000039-.5286578-.0940872-.735-.266l-3.242-2.7c-.3735717-.3093162-.5126883-.8198926-.3476606-1.2759608.1650276-.4560682.598655-.759398 1.0836606-.7580392h21.7c.4839897-.0003391.916299.302644 1.0811236.7577033.1648247.4550592.0268199.9646128-.3451236 1.2742967l-3.242 2.7c-.207119.1735163-.4688038.2684169-.739.268z" fill="#35495e"></path><path id="Path" d="m54 39v3c0 .5522847-.4477153 1-1 1h-7.848c-.4836546.0011528-.9160607-.3012036-1.0809869-.7558709-.1649261-.4546674-.0269278-.9639325.3449869-1.2731291l3.253-2.7c.2059548-.1738612.4664752-.2697865.736-.271h4.595c.2652165 0 .5195704.1053568.7071068.2928932s.2928932.4418903.2928932.7071068z" fill="#f0c419"></path><path id="Path" d="m4 39v3c0 .5522847.44771525 1 1 1h7.846c.4836546.0011528.9160607-.3012036 1.0809869-.7558709.1649261-.4546674.0269278-.9639325-.3449869-1.2731291l-3.253-2.7c-.2041097-.1723289-.46188589-.2681552-.729-.271h-4.6c-.55228475 0-1 .4477153-1 1z" fill="#f0c419"></path><g fill="#c03a2b"><path id="Path" d="m12 49h-7c-.55228475 0-1-.4477153-1-1s.44771525-1 1-1h7c.5522847 0 1 .4477153 1 1s-.4477153 1-1 1z"></path><path id="Path" d="m53 49h-7c-.5522847 0-1-.4477153-1-1s.4477153-1 1-1h7c.5522847 0 1 .4477153 1 1s-.4477153 1-1 1z"></path><path id="Path" d="m38 49h-18c-.5522847 0-1-.4477153-1-1s.4477153-1 1-1h18c.5522847 0 1 .4477153 1 1s-.4477153 1-1 1z"></path><path id="Path" d="m2 26h2c1.1045695 0 2 .8954305 2 2v2h-4c-1.1045695 0-2-.8954305-2-2s.8954305-2 2-2z"></path><path id="Path" d="m54 26h4v2c0 1.1045695-.8954305 2-2 2h-2c-1.1045695 0-2-.8954305-2-2s.8954305-2 2-2z" transform="matrix(-1 0 0 -1 110 56)"></path></g><path id="Path" d="m38.961 11.32c-.0997595.9695612-.5558905 1.867569-1.28 2.52-.9733313.9865545-2.3971006 1.382469-3.74 1.04l-7.08 7.08c.3493841 1.6789724-.3398538 3.4040363-1.75 4.38-.5310278.3895946-1.1626833.6186565-1.82.66-.2721419.0045092-.5263424-.1353592-.6681871-.3676556-.1418447-.2322965-.1501431-.5223175-.0218129-.7623444.4555467-.7072337.3561346-1.6364269-.2387193-2.2312807-.5948538-.5948539-1.524047-.694266-2.2312807-.2387193-.2452559.1278255-.5400804.1150747-.7733846-.0334479s-.369632-.4102453-.3576154-.6865521c.1453848-1.1666298.7768176-2.2175631 1.7386067-2.8936722.961789-.6761091 2.1644316-.9144764 3.3113933-.6563278l7.06-7.06c-.3699244-1.6869948.3178278-3.4300909 1.74-4.41.5313097-.38977389 1.1633375-.61884493 1.821-.66.2714193-.00271104.5242691.13749978.6657249.36915916.1414557.23165937.1506757.52063533.0242751.76084084-.4580773.70711337-.3596896 1.63818292.2360637 2.2339363.5957534.5957533 1.5268229.694141 2.2339363.2360637.2451789-.1273212.5396326-.1143075.7726233.0341468.2329907.1484542.3691902.4098391.3573767.6858532z" fill="#95a5a5"></path><path id="Path" d="m26.465 9.535-5.657 5.657c-.3904999.3903819-1.0235001.3903819-1.414 0l-2.122-2.121c-.3903819-.3904999-.3903819-1.0235001 0-1.414l4.384-4.385c.2484623-.24849252.6091195-.3483376.95-.263l3.394.849c.3494839.08731595.6249972.35585011.7212494.70297914.0962523.34712904-.0016336.71919963-.2562494.97402086z" fill="#95a5a5"></path><path id="Rectangle" d="m23.248 11.802h4.002v5.077h-4.002z" fill="#cb8252" transform="matrix(.707 -.707 .707 .707 -2.745 22.054)"></path><path id="Path" d="m31.28 17.54 6.34 6.34c.3877236.3900375.3877236 1.0199625 0 1.41l-1.41 1.42c-.3930079.3899779-1.0269921.3899779-1.42 0l-6.34-6.34z" fill="#cb8252"></path></g></g></svg>