<!-- icon666.com - MILLIONS vector ICONS FREE --><svg id="icons" enable-background="new 0 0 64 64" viewBox="0 0 64 64" xmlns="http://www.w3.org/2000/svg"><g><g><path d="m24.12 32.88c.54.54.88 1.29.88 2.12s-.34 1.58-.88 2.12-1.29.88-2.12.88c-.82 0-1.58-.34-2.12-.88s-.88-1.29-.88-2.12.34-1.58.88-2.12 1.3-.88 2.12-.88c.83 0 1.58.34 2.12.88z" fill="#e6e9ed"></path></g><g><path d="m30.48 43.48c2.17-2.16 3.52-5.17 3.52-8.48s-1.34-6.31-3.51-8.48c-2.17-2.18-5.17-3.52-8.49-3.52-3.31 0-6.31 1.34-8.48 3.52-2.18 2.17-3.52 5.17-3.52 8.48s1.34 6.31 3.52 8.48h.011c2.169 2.18 5.159 3.52 8.469 3.52 3.32 0 6.31-1.34 8.48-3.52zm12.32-11.35c.13.94.2 1.9.2 2.87 0 1.72-.21 3.4-.6 5-.721 2.96-2.07 5.68-3.9 8-1.18 1.48-2.54 2.8-4.06 3.92-3.48 2.57-7.78 4.08-12.44 4.08-11.6 0-21-9.4-21-21s9.39-20.99 20.99-21h.01c3.2 0 6.24.72 8.96 2 3.7 1.75 6.81 4.54 8.93 8.01.931 1.49 1.67 3.11 2.19 4.82.33 1.07.57 2.17.72 3.3z" fill="#656d78"></path></g><g><path d="m30.49 26.52c-2.17-2.18-5.17-3.52-8.49-3.52-3.31 0-6.31 1.34-8.48 3.52-2.18 2.17-3.52 5.17-3.52 8.48s1.34 6.31 3.52 8.48h.011c2.169 2.18 5.159 3.52 8.469 3.52 3.32 0 6.31-1.34 8.48-3.52 2.17-2.16 3.52-5.17 3.52-8.48s-1.34-6.31-3.51-8.48zm-8.49 11.48c-.82 0-1.58-.34-2.12-.88s-.88-1.29-.88-2.12.34-1.58.88-2.12 1.3-.88 2.12-.88c.83 0 1.58.34 2.12.88s.88 1.29.88 2.12-.34 1.58-.88 2.12-1.29.88-2.12.88z" fill="#434a54"></path></g><g><path d="m39.9 24h21.1c1.1 0 2 .9 2 2v6h-19.14l-1.06.13c-.149-1.13-.39-2.229-.72-3.3-.521-1.71-1.26-3.33-2.19-4.82z" fill="#434a54"></path></g><g><path d="m42.4 40h18.6c1.1 0 2 .9 2 2v6h-24.5c1.83-2.32 3.18-5.04 3.9-8z" fill="#545c66"></path></g><g><path d="m30.96 16h32.04v6c0 1.1-.9 2-2 2h-21.1l-.011.01c-2.119-3.47-5.229-6.26-8.929-8.01z" fill="#545c66"></path></g><g><path d="m43.86 32h19.14v6c0 1.1-.9 2-2 2h-18.6c.39-1.6.6-3.28.6-5 0-.97-.07-1.93-.2-2.87z" fill="#434a54"></path></g><g><path d="m38.5 48h24.5v6c0 1.1-.9 2-2 2h-39c4.66 0 8.96-1.51 12.44-4.08 1.52-1.12 2.88-2.44 4.06-3.92z" fill="#545c66"></path></g><g><path d="m23.99 8h37.01c1.1 0 2 .9 2 2v6h-32.04c-2.72-1.28-5.76-2-8.96-2h-.01v-4c0-1.1.9-2 2-2z" fill="#545c66"></path></g></g><g><g><path d="m22.002 57c-12.131 0-22-9.869-22-22s9.869-22 22-22 22 9.869 22 22-9.869 22-22 22zm0-42c-11.028 0-20 8.972-20 20s8.972 20 20 20 20-8.972 20-20-8.972-20-20-20z"></path></g><g><path d="m22.002 48c-7.168 0-13-5.832-13-13s5.832-13 13-13 13 5.832 13 13-5.832 13-13 13zm0-24c-6.065 0-11 4.935-11 11s4.935 11 11 11 11-4.935 11-11-4.935-11-11-11z"></path></g><g><path d="m22.002 39c-2.206 0-4-1.794-4-4s1.794-4 4-4 4 1.794 4 4-1.794 4-4 4zm0-6c-1.103 0-2 .897-2 2s.897 2 2 2 2-.897 2-2-.898-2-2-2z"></path></g><g><g><path d="m60.998 57h-38.996c-.553 0-1-.447-1-1s.447-1 1-1h38.996c.552 0 1-.448 1-1v-12.004c0-.552-.448-1-1-1-.553 0-1-.447-1-1s.447-1 1-1c1.654 0 3 1.346 3 3v12.004c0 1.654-1.346 3-3 3z"></path></g><g><path d="m62.998 49h-24.5c-.553 0-1-.447-1-1s.447-1 1-1h24.5c.553 0 1 .447 1 1s-.447 1-1 1z"></path></g><g><path d="m57.999 46c-.15 0-.303-.034-.446-.105-.494-.247-.694-.848-.447-1.342l1-2c.248-.494.847-.692 1.342-.447.494.247.694.848.447 1.342l-1 2c-.176.35-.529.552-.896.552z"></path></g><g><path d="m59.001 54c-.367 0-.72-.202-.896-.553l-1-2c-.247-.494-.047-1.095.447-1.342.494-.246 1.094-.047 1.342.447l1 2c.247.494.047 1.095-.447 1.342-.143.072-.296.106-.446.106z"></path></g><g><path d="m53.996 46c-.15 0-.303-.034-.446-.105-.494-.247-.694-.848-.447-1.342l1-2c.248-.494.847-.692 1.342-.447.494.247.694.848.447 1.342l-1 2c-.176.35-.529.552-.896.552z"></path></g><g><path d="m54.998 54c-.367 0-.72-.202-.896-.553l-1-2c-.247-.494-.047-1.095.447-1.342.494-.246 1.094-.047 1.342.447l1 2c.247.494.047 1.095-.447 1.342-.143.072-.296.106-.446.106z"></path></g><g><path d="m49.993 46c-.15 0-.303-.034-.446-.105-.494-.247-.694-.848-.447-1.342l1-2c.248-.494.848-.692 1.342-.447.494.247.694.848.447 1.342l-1 2c-.176.35-.529.552-.896.552z"></path></g><g><path d="m50.995 54c-.367 0-.72-.202-.896-.553l-1-2c-.247-.494-.047-1.095.447-1.342.494-.246 1.094-.047 1.342.447l1 2c.247.494.047 1.095-.447 1.342-.143.072-.295.106-.446.106z"></path></g><g><path d="m45.996 46c-.15 0-.303-.034-.446-.105-.494-.247-.694-.848-.447-1.342l1-2c.247-.494.849-.692 1.342-.447.494.247.694.848.447 1.342l-1 2c-.176.35-.529.552-.896.552z"></path></g><g><path d="m46.998 54c-.367 0-.72-.202-.896-.553l-1-2c-.247-.494-.047-1.095.447-1.342.493-.246 1.094-.047 1.342.447l1 2c.247.494.047 1.095-.447 1.342-.143.072-.296.106-.446.106z"></path></g><g><path d="m41.987 46c-.15 0-.303-.034-.446-.105-.494-.247-.694-.848-.447-1.342l1-2c.248-.494.848-.692 1.342-.447.494.247.694.848.447 1.342l-1 2c-.176.35-.529.552-.896.552z"></path></g><g><path d="m42.989 54c-.367 0-.72-.202-.896-.553l-1-2c-.247-.494-.047-1.095.447-1.342.494-.246 1.094-.047 1.342.447l1 2c.247.494.047 1.095-.447 1.342-.143.072-.295.106-.446.106z"></path></g><g><path d="m38.986 54c-.367 0-.72-.202-.896-.553l-1-2c-.247-.494-.047-1.095.447-1.342.494-.246 1.094-.047 1.342.447l1 2c.247.494.047 1.095-.447 1.342-.143.072-.295.106-.446.106z"></path></g><g><path d="m34.983 54c-.367 0-.72-.202-.896-.553l-.54-1.079c-.247-.493-.047-1.095.447-1.342.493-.246 1.094-.047 1.342.447l.54 1.079c.247.493.047 1.095-.447 1.342-.143.072-.295.106-.446.106z"></path></g></g><g><g><path d="m60.998 41.002h-18.596c-.553 0-1-.447-1-1s.447-1 1-1h18.596c.552 0 1-.448 1-1v-12.004c0-.552-.448-1-1-1-.553 0-1-.447-1-1s.447-1 1-1c1.654 0 3 1.346 3 3v12.004c0 1.654-1.346 3-3 3z"></path></g><g><path d="m62.998 33.002h-19.14c-.553 0-1-.447-1-1s.447-1 1-1h19.14c.553 0 1 .447 1 1s-.447 1-1 1z"></path></g><g><path d="m57.999 30.002c-.15 0-.303-.034-.446-.105-.494-.247-.694-.848-.447-1.342l1-2c.248-.494.847-.692 1.342-.447.494.247.694.848.447 1.342l-1 2c-.176.35-.529.552-.896.552z"></path></g><g><path d="m59.001 38.002c-.367 0-.72-.202-.896-.553l-1-2c-.247-.494-.047-1.095.447-1.342.494-.246 1.094-.047 1.342.447l1 2c.247.494.047 1.095-.447 1.342-.143.072-.296.106-.446.106z"></path></g><g><path d="m53.996 30.002c-.15 0-.303-.034-.446-.105-.494-.247-.694-.848-.447-1.342l1-2c.248-.494.847-.692 1.342-.447.494.247.694.848.447 1.342l-1 2c-.176.35-.529.552-.896.552z"></path></g><g><path d="m54.998 38.002c-.367 0-.72-.202-.896-.553l-1-2c-.247-.494-.047-1.095.447-1.342.494-.246 1.094-.047 1.342.447l1 2c.247.494.047 1.095-.447 1.342-.143.072-.296.106-.446.106z"></path></g><g><path d="m49.993 30.002c-.15 0-.303-.034-.446-.105-.494-.247-.694-.848-.447-1.342l1-2c.248-.494.848-.692 1.342-.447.494.247.694.848.447 1.342l-1 2c-.176.35-.529.552-.896.552z"></path></g><g><path d="m50.995 38.002c-.367 0-.72-.202-.896-.553l-1-2c-.247-.494-.047-1.095.447-1.342.494-.246 1.094-.047 1.342.447l1 2c.247.494.047 1.095-.447 1.342-.143.072-.295.106-.446.106z"></path></g><g><path d="m45.996 30.002c-.15 0-.303-.034-.446-.105-.494-.247-.694-.848-.447-1.342l1-2c.247-.494.849-.692 1.342-.447.494.247.694.848.447 1.342l-1 2c-.176.35-.529.552-.896.552z"></path></g><g><path d="m46.998 38.002c-.367 0-.72-.202-.896-.553l-1-2c-.247-.494-.047-1.095.447-1.342.493-.246 1.094-.047 1.342.447l1 2c.247.494.047 1.095-.447 1.342-.143.072-.296.106-.446.106z"></path></g><g><path d="m42.081 29.833c-.148 0-.3-.033-.442-.104-.495-.245-.698-.845-.453-1.34l.906-1.831c.245-.494.844-.697 1.34-.453.495.245.698.845.453 1.34l-.906 1.831c-.175.353-.53.557-.898.557z"></path></g></g><g><path d="m60.998 25.004h-21.101c-.553 0-1-.447-1-1s.447-1 1-1h21.101c.552 0 1-.448 1-1v-12.004c0-.552-.448-1-1-1h-37.004c-.552 0-1 .448-1 1v4.001c0 .553-.447 1-1 1s-1-.447-1-1v-4.001c0-1.654 1.346-3 3-3h37.004c1.654 0 3 1.346 3 3v12.004c0 1.654-1.346 3-3 3z"></path></g><g><path d="m62.998 17.004h-32.039c-.553 0-1-.447-1-1s.447-1 1-1h32.039c.553 0 1 .447 1 1s-.447 1-1 1z"></path></g><g><path d="m57.999 14.004c-.15 0-.303-.034-.446-.105-.494-.247-.694-.848-.447-1.342l1-2c.248-.494.847-.691 1.342-.447.494.247.694.848.447 1.342l-1 2c-.176.35-.529.552-.896.552z"></path></g><g><path d="m59.001 22.004c-.367 0-.72-.202-.896-.553l-1-2c-.247-.494-.047-1.095.447-1.342.494-.246 1.094-.047 1.342.447l1 2c.247.494.047 1.095-.447 1.342-.143.072-.296.106-.446.106z"></path></g><g><path d="m53.996 14.004c-.15 0-.303-.034-.446-.105-.494-.247-.694-.848-.447-1.342l1-2c.248-.494.847-.691 1.342-.447.494.247.694.848.447 1.342l-1 2c-.176.35-.529.552-.896.552z"></path></g><g><path d="m54.998 22.004c-.367 0-.72-.202-.896-.553l-1-2c-.247-.494-.047-1.095.447-1.342.494-.246 1.094-.047 1.342.447l1 2c.247.494.047 1.095-.447 1.342-.143.072-.296.106-.446.106z"></path></g><g><path d="m49.993 14.004c-.15 0-.303-.034-.446-.105-.494-.247-.694-.848-.447-1.342l1-2c.248-.494.848-.691 1.342-.447.494.247.694.848.447 1.342l-1 2c-.176.35-.529.552-.896.552z"></path></g><g><path d="m50.995 22.004c-.367 0-.72-.202-.896-.553l-1-2c-.247-.494-.047-1.095.447-1.342.494-.246 1.094-.047 1.342.447l1 2c.247.494.047 1.095-.447 1.342-.143.072-.295.106-.446.106z"></path></g><g><path d="m45.996 14.004c-.15 0-.303-.034-.446-.105-.494-.247-.694-.848-.447-1.342l1-2c.247-.494.849-.691 1.342-.447.494.247.694.848.447 1.342l-1 2c-.176.35-.529.552-.896.552z"></path></g><g><path d="m46.998 22.004c-.367 0-.72-.202-.896-.553l-1-2c-.247-.494-.047-1.095.447-1.342.493-.246 1.094-.047 1.342.447l1 2c.247.494.047 1.095-.447 1.342-.143.072-.296.106-.446.106z"></path></g><g><path d="m41.987 14.004c-.15 0-.303-.034-.446-.105-.494-.247-.694-.848-.447-1.342l1-2c.248-.494.848-.691 1.342-.447.494.247.694.848.447 1.342l-1 2c-.176.35-.529.552-.896.552z"></path></g><g><path d="m42.989 22.004c-.367 0-.72-.202-.896-.553l-1-2c-.247-.494-.047-1.095.447-1.342.494-.246 1.094-.047 1.342.447l1 2c.247.494.047 1.095-.447 1.342-.143.072-.295.106-.446.106z"></path></g><g><path d="m37.984 14.004c-.15 0-.303-.034-.446-.105-.494-.247-.694-.848-.447-1.342l1-2c.247-.494.848-.691 1.342-.447.494.247.694.848.447 1.342l-1 2c-.176.35-.528.552-.896.552z"></path></g><g><path d="m39 22c-.365 0-.716-.2-.893-.547l-1.014-1.996c-.25-.493-.054-1.095.438-1.345.493-.25 1.094-.053 1.345.438l1.014 1.996c.25.493.054 1.095-.438 1.345-.145.074-.3.109-.452.109z"></path></g><g><path d="m33.981 14.004c-.15 0-.303-.034-.446-.105-.494-.247-.694-.848-.447-1.342l1-2c.247-.494.848-.691 1.342-.447.494.247.694.848.447 1.342l-1 2c-.176.35-.528.552-.896.552z"></path></g><g><path d="m29.979 14.004c-.15 0-.303-.034-.446-.105-.494-.247-.694-.848-.447-1.342l1-2c.247-.494.848-.691 1.342-.447.494.247.694.848.447 1.342l-1 2c-.177.35-.529.552-.896.552z"></path></g><g><path d="m25.976 14.004c-.15 0-.303-.034-.446-.105-.494-.247-.694-.848-.447-1.342l1-2c.247-.494.848-.691 1.342-.447.494.247.694.848.447 1.342l-1 2c-.177.35-.529.552-.896.552z"></path></g><g><path d="m22.002 33c-.553 0-1-.447-1-1v-9c0-.553.447-1 1-1s1 .447 1 1v9c0 .553-.447 1-1 1z"></path></g><g><path d="m22.002 48c-.553 0-1-.447-1-1v-9c0-.553.447-1 1-1s1 .447 1 1v9c0 .553-.447 1-1 1z"></path></g><g><path d="m19.881 33.879c-.256 0-.512-.098-.707-.293l-6.365-6.363c-.391-.391-.391-1.023 0-1.414s1.023-.391 1.414 0l6.365 6.363c.391.391.391 1.023 0 1.414-.195.195-.451.293-.707.293z"></path></g><g><path d="m30.486 44.486c-.256 0-.512-.098-.707-.293l-6.363-6.365c-.391-.391-.391-1.023 0-1.414s1.023-.391 1.414 0l6.363 6.365c.391.391.391 1.023 0 1.414-.195.196-.451.293-.707.293z"></path></g><g><path d="m10.002 36.002c-.552 0-1-.447-1-1 0-.552.447-1 1-1l9-.002c.552 0 1 .447 1 1 0 .552-.447 1-1 1z"></path></g><g><path d="m34.002 36.002-9-.002c-.553 0-1-.448-1-1 0-.553.448-1 1-1l9 .002c.553 0 1 .448 1 1 0 .553-.448 1-1 1z"></path></g><g><path d="m13.518 44.487c-.256 0-.512-.098-.707-.293-.391-.391-.391-1.023 0-1.414l6.363-6.366c.391-.391 1.023-.391 1.414 0s.391 1.023 0 1.414l-6.363 6.366c-.196.196-.452.293-.707.293z"></path></g><g><path d="m24.123 33.879c-.256 0-.512-.098-.707-.293-.391-.391-.391-1.023 0-1.414l6.365-6.362c.391-.391 1.023-.391 1.414 0s.391 1.023 0 1.414l-6.365 6.362c-.195.195-.451.293-.707.293z"></path></g></g></svg>