<svg width="160" height="59" viewBox="0 0 160 59" fill="none" xmlns="http://www.w3.org/2000/svg">
<path d="M152.324 14.3306C141.4 11.3155 135.274 9.35089 124.348 5.89764L124.03 8.81676C136.665 12.3916 142.903 13.6381 152.324 14.3306Z" fill="#FF0000" stroke="#FF0000"/>
<path d="M124.348 5.89761C109.781 1.91059 102.699 0.723439 92.2394 0.708069V3.30284C102.582 3.38973 109.755 4.80924 124.03 8.81672L124.348 5.89761Z" fill="#FF0000" stroke="#FF0000"/>
<path d="M92.2394 0.708069C82.9444 0.842554 78.0384 1.41398 70.6217 4.60022L72.5292 6.5463C79.5879 3.95946 83.8726 3.18551 92.2394 3.30284V0.708069Z" fill="#FF0000" stroke="#FF0000"/>
<path d="M70.6218 4.6001L49.6399 14.3305H55.6801L72.5292 6.54617L70.6218 4.6001Z" fill="#FF0000" stroke="#FF0000"/>
<path d="M89.6962 17.2497C76.5297 14.9873 69.15 14.1424 55.998 14.3305V16.9253L89.6962 17.2497Z" fill="#FF0000" stroke="#FF0000"/>
<path d="M49.322 14.3306C38.8257 16.213 33.033 17.3746 23.8894 20.8175L24.8431 23.088C33.9478 20.0445 39.4762 18.8042 49.6399 16.9254L49.322 14.3306Z" fill="#FF0000" stroke="#FF0000"/>
<path d="M23.8893 20.8174C15.7286 24.4968 8.995 27.3441 1 36.7104L3.54326 38.0078C8.98242 31.5849 13.5745 28.3019 24.8431 23.0879L23.8893 20.8174Z" fill="#FF0000" stroke="#FF0000"/>
<path d="M136.746 18.547C128.997 18.2782 125.141 18.3076 120.533 19.1957L120.851 20.8174C125.934 19.1644 129.551 18.8467 136.746 18.8714V18.547Z" fill="#FF0000" stroke="#FF0000"/>
<path d="M3.54326 37.6835C3.18835 39.8162 4.35127 42.6504 6.72233 48.0626C3.14017 44.0735 1.7439 41.6352 1 36.7104L3.54326 37.6835Z" fill="#FF0000" stroke="#FF0000"/>
<path d="M120.533 19.1957C114.635 20.2825 110.807 21.9238 102.413 27.953L104.638 29.5748C110.936 24.8041 114.356 22.7445 120.851 20.8174L120.533 19.1957Z" fill="#FF0000" stroke="#FF0000"/>
<path d="M47.7757 40.9269C47.7757 49.2668 41.162 55.9416 33.1087 55.9416C25.0553 55.9416 18.4417 49.2668 18.4417 40.9269C18.4417 32.587 25.0553 25.9122 33.1087 25.9122C41.162 25.9122 47.7757 32.587 47.7757 40.9269Z" stroke="#FF0000" stroke-width="5"/>
<path d="M145.691 40.9269C145.691 49.2668 139.078 55.9416 131.024 55.9416C122.971 55.9416 116.357 49.2668 116.357 40.9269C116.357 32.587 122.971 25.9122 131.024 25.9122C139.078 25.9122 145.691 32.587 145.691 40.9269Z" stroke="#FF0000" stroke-width="5"/>
<rect x="48.2324" y="43.3732" width="68.3038" height="1.59477" fill="#FF0000" stroke="#FF0000"/>
<path d="M151.37 39.954C149.746 40.4148 149.062 40.9242 148.191 42.2244H147.555V38.9809L148.191 38.6566C149.395 37.5211 150.348 37.3732 152.006 37.0349H154.231C155.453 37.0627 155.781 36.8679 156.139 36.3862H158.682V37.0349C158.626 37.5497 158.568 37.8352 158.364 38.3322C157.796 38.9624 157.382 39.249 156.457 39.6296C153.657 39.6735 151.521 39.6403 151.37 39.954Z" fill="#FF0000" stroke="#FF0000"/>
<path d="M156.58 35.8861L157.41 26.4943L158.241 35.8861H156.58Z" fill="#FF0000" stroke="#FF0000"/>
<path d="M104.638 29.5749C97.4773 34.2625 92.9918 35.2659 84.6097 35.7374C92.2246 33.9599 96.1621 32.3307 102.413 27.9531L104.638 29.5749Z" fill="#FF0000" stroke="#FF0000"/>
<rect x="49.5" y="14.5" width="6" height="2" fill="#FF0000" stroke="#FF0000"/>
</svg>
